<svg xmlns="http://www.w3.org/2000/svg" width="134.196" height="228.679" viewBox="0 0 134.196 228.679"><g transform="translate(-105.772)"><g transform="translate(105.772 186.796)"><path d="M105.772,418.226V443.08A17.049,17.049,0,0,0,122.8,460.109H222.938a17.049,17.049,0,0,0,17.029-17.029V418.226Zm77.664,27.734H162.3V432.375h21.133Z" transform="translate(-105.772 -418.226)" fill="#56864b"/></g><g transform="translate(105.772)"><path d="M222.938,0H122.8a17.049,17.049,0,0,0-17.029,17.029V41.884h134.2V17.029A17.049,17.049,0,0,0,222.938,0ZM175.381,27.735H144.214V14.149h31.167Zm26.144,0H188.966V14.149h12.559Z" transform="translate(-105.772)" fill="#56864b"/></g><g transform="translate(105.772 55.469)"><path d="M226.382,124.193H105.773V241.934H239.968V124.193ZM202.2,187.843l-22.54-22.54v61.527H166.078V165.3l-22.54,22.54-9.606-9.606L172.87,139.3l38.939,38.94Z" transform="translate(-105.773 -124.193)" fill="#56864b"/></g></g></svg>